<svg version="1.1" id="Layer_1" xmlns="http://www.w3.org/2000/svg" xmlns:xlink="http://www.w3.org/1999/xlink" x="0px" y="0px"
	 width="100%" viewBox="0 0 120 97" enable-background="new 0 0 120 97" xml:space="preserve">
<path fill="#FCFCFC" opacity="1.000000" stroke="none" 
	d="
M88.000000,98.000000 
	C58.666668,98.000000 29.833334,98.000000 1.000000,98.000000 
	C1.000000,65.666664 1.000000,33.333332 1.000000,1.000000 
	C41.000000,1.000000 81.000000,1.000000 121.000000,1.000000 
	C121.000000,33.333332 121.000000,65.666664 121.000000,98.000000 
	C110.166664,98.000000 99.333336,98.000000 88.000000,98.000000 
M73.200302,31.706282 
	C80.654915,30.402567 88.109535,29.098854 95.770409,28.737015 
	C95.777275,42.551563 95.784134,56.366116 94.975517,70.207901 
	C89.239571,69.332771 83.513565,68.383888 77.764069,67.609360 
	C74.146362,67.122009 70.897758,66.425911 71.384705,61.733215 
	C69.077141,61.733215 67.171577,61.733215 64.879166,61.733215 
	C64.879166,64.534683 64.540489,67.068687 65.012062,69.441689 
	C65.275475,70.767227 66.717758,72.630920 67.913025,72.878151 
	C78.635612,75.096107 89.414322,77.049248 100.203148,78.927338 
	C100.996872,79.065498 101.997643,78.014244 103.098656,76.530090 
	C103.037697,57.636864 102.976738,38.743637 102.517784,19.195658 
	C90.584053,21.314606 78.647346,23.417248 66.725067,25.598772 
	C66.103241,25.712553 65.604332,26.498013 64.856171,27.878260 
	C64.856171,30.936491 64.856171,33.994724 64.856171,36.941448 
	C71.892609,38.270039 71.895927,38.267517 73.200302,31.706282 
M45.682880,59.054493 
	C48.282593,58.738041 50.882309,58.421589 53.420368,58.112644 
	C53.420368,54.732498 53.420368,51.828053 53.420368,48.497177 
	C51.485245,48.609604 49.927139,48.700127 48.452156,48.785820 
	C48.165833,51.192905 47.940144,53.090260 47.705601,55.062054 
	C43.136578,55.182796 39.864197,54.050339 39.598743,49.309921 
	C39.527477,48.037235 40.467957,45.801338 41.383888,45.538074 
	C45.191921,44.443542 49.168049,43.933830 53.750210,43.085983 
	C53.319080,42.416840 52.570858,40.308598 51.872368,40.324947 
	C47.301857,40.431934 42.404587,40.142403 38.313049,41.755428 
	C36.073914,42.638165 34.044395,46.995277 34.056553,49.776314 
	C34.067593,52.301311 36.608582,55.200386 38.730202,57.193810 
	C40.113792,58.493809 42.741192,58.470013 45.682880,59.054493 
M23.815117,42.182381 
	C22.672783,43.526520 21.530451,44.870659 19.883562,46.808491 
	C19.508869,44.101604 19.248899,42.223507 18.940676,39.996807 
	C17.190695,40.099705 15.633151,40.191292 14.079595,40.282639 
	C14.079595,46.544312 14.079595,52.298805 14.079595,58.149902 
	C15.948539,58.149902 17.525108,58.149902 19.106188,58.149902 
	C19.351393,55.877914 19.562408,53.922714 19.853966,51.221233 
	C23.650642,55.030117 25.424034,60.907799 31.982199,57.732662 
	C29.597286,54.664711 27.284115,51.689045 24.969675,48.711750 
	C27.233530,45.888035 29.311960,43.295601 31.390390,40.703167 
	C31.096054,40.287933 30.801716,39.872700 30.507380,39.457470 
	C28.445019,40.163059 26.382656,40.868652 23.815117,42.182381 
M71.691231,58.438488 
	C77.705589,56.172737 79.215355,50.655346 76.607246,40.011719 
	C75.209190,40.084137 73.764793,40.158955 71.799095,40.260773 
	C71.799095,43.925465 72.120354,47.420895 71.654373,50.808029 
	C71.442902,52.345226 69.670952,53.667744 68.606873,55.087643 
	C67.389725,53.650433 65.376923,52.341461 65.120316,50.749428 
	C64.578560,47.388279 64.955429,43.879063 64.955429,40.309303 
	C62.816742,40.309303 61.246956,40.309303 59.229561,40.309303 
	C59.229561,43.210342 59.229534,45.834248 59.229561,48.458153 
	C59.229649,56.987019 62.226086,59.610291 71.691231,58.438488 
z"/>
<path fill="#219745" opacity="1.000000" stroke="none" 
	d="
M102.915779,19.850410 
	C102.976738,38.743637 103.037697,57.636864 102.673645,76.864029 
	C100.096085,74.858864 97.943535,72.519768 95.790993,70.180664 
	C95.784134,56.366116 95.777275,42.551563 95.914185,28.032669 
	C98.343895,24.835688 100.629837,22.343050 102.915779,19.850410 
z"/>
<path fill="#1E3E98" opacity="1.000000" stroke="none" 
	d="
M95.383255,70.194283 
	C97.943535,72.519768 100.096085,74.858864 102.575394,77.356964 
	C101.997643,78.014244 100.996872,79.065498 100.203148,78.927338 
	C89.414322,77.049248 78.635612,75.096107 67.913025,72.878151 
	C66.717758,72.630920 65.275475,70.767227 65.012062,69.441689 
	C64.540489,67.068687 64.879166,64.534683 64.879166,61.733215 
	C67.171577,61.733215 69.077141,61.733215 71.384705,61.733215 
	C70.897758,66.425911 74.146362,67.122009 77.764069,67.609360 
	C83.513565,68.383888 89.239571,69.332771 95.383255,70.194283 
z"/>
<path fill="#212121" opacity="1.000000" stroke="none" 
	d="
M45.247147,59.046860 
	C42.741192,58.470013 40.113792,58.493809 38.730202,57.193810 
	C36.608582,55.200386 34.067593,52.301311 34.056553,49.776314 
	C34.044395,46.995277 36.073914,42.638165 38.313049,41.755428 
	C42.404587,40.142403 47.301857,40.431934 51.872368,40.324947 
	C52.570858,40.308598 53.319080,42.416840 53.750210,43.085983 
	C49.168049,43.933830 45.191921,44.443542 41.383888,45.538074 
	C40.467957,45.801338 39.527477,48.037235 39.598743,49.309921 
	C39.864197,54.050339 43.136578,55.182796 47.705601,55.062054 
	C47.940144,53.090260 48.165833,51.192905 48.452156,48.785820 
	C49.927139,48.700127 51.485245,48.609604 53.420368,48.497177 
	C53.420368,51.828053 53.420368,54.732498 53.420368,58.112644 
	C50.882309,58.421589 48.282593,58.738041 45.247147,59.046860 
z"/>
<path fill="#191919" opacity="1.000000" stroke="none" 
	d="
M24.067707,41.878311 
	C26.382656,40.868652 28.445019,40.163059 30.507380,39.457470 
	C30.801716,39.872700 31.096054,40.287933 31.390390,40.703167 
	C29.311960,43.295601 27.233530,45.888035 24.969675,48.711750 
	C27.284115,51.689045 29.597286,54.664711 31.982199,57.732662 
	C25.424034,60.907799 23.650642,55.030117 19.853966,51.221233 
	C19.562408,53.922714 19.351393,55.877914 19.106188,58.149902 
	C17.525108,58.149902 15.948539,58.149902 14.079595,58.149902 
	C14.079595,52.298805 14.079595,46.544312 14.079595,40.282639 
	C15.633151,40.191292 17.190695,40.099705 18.940676,39.996807 
	C19.248899,42.223507 19.508869,44.101604 19.883562,46.808491 
	C21.530451,44.870659 22.672783,43.526520 24.067707,41.878311 
z"/>
<path fill="#F88617" opacity="1.000000" stroke="none" 
	d="
M102.716782,19.523035 
	C100.629837,22.343050 98.343895,24.835688 95.811050,27.561733 
	C88.109535,29.098854 80.654915,30.402567 72.525681,31.579517 
	C69.583435,29.958757 67.315819,28.464762 65.048195,26.970766 
	C65.604332,26.498013 66.103241,25.712553 66.725067,25.598772 
	C78.647346,23.417248 90.584053,21.314606 102.716782,19.523035 
z"/>
<path fill="#1A1A1A" opacity="1.000000" stroke="none" 
	d="
M71.302574,58.562943 
	C62.226086,59.610291 59.229649,56.987019 59.229561,48.458153 
	C59.229534,45.834248 59.229561,43.210342 59.229561,40.309303 
	C61.246956,40.309303 62.816742,40.309303 64.955429,40.309303 
	C64.955429,43.879063 64.578560,47.388279 65.120316,50.749428 
	C65.376923,52.341461 67.389725,53.650433 68.606873,55.087646 
	C69.670952,53.667744 71.442902,52.345226 71.654373,50.808029 
	C72.120354,47.420895 71.799095,43.925465 71.799095,40.260773 
	C73.764793,40.158955 75.209190,40.084137 76.607246,40.011719 
	C79.215355,50.655346 77.705589,56.172737 71.302574,58.562943 
z"/>
<path fill="#FB4013" opacity="1.000000" stroke="none" 
	d="
M64.952179,27.424513 
	C67.315819,28.464762 69.583435,29.958757 72.086044,31.620667 
	C71.895927,38.267517 71.892609,38.270039 64.856171,36.941448 
	C64.856171,33.994724 64.856171,30.936491 64.952179,27.424513 
z"/>
</svg>